<svg width="150" height="131" viewBox="0 0 150 131" fill="none" xmlns="http://www.w3.org/2000/svg">
<rect x="35" y="100.831" width="80" height="29.6364" rx="13.5" fill="#F8F8FF"/>
<rect opacity="0.3" x="62.8433" y="106.966" width="44.8085" height="3.10673" rx="1.55337" fill="#1B3554"/>
<rect opacity="0.3" x="62.8433" y="112.629" width="33.0012" height="3.10673" rx="1.55337" fill="#1B3554"/>
<rect opacity="0.15" x="62.8433" y="121.124" width="12.8139" height="3.10673" rx="1.55337" fill="#1B3554"/>
<path fill-rule="evenodd" clip-rule="evenodd" d="M49.3513 119.105C53.368 119.105 56.6241 115.859 56.6241 111.856C56.6241 107.852 53.368 104.607 49.3513 104.607C45.3347 104.607 42.0786 107.852 42.0786 111.856C42.0786 115.859 45.3347 119.105 49.3513 119.105Z" fill="#BAC2CB"/>
<path d="M48.185 114.546C48.3234 114.684 48.5043 114.753 48.6855 114.753C48.8667 114.753 49.0476 114.684 49.186 114.546L52.7254 111.006C53.0019 110.73 53.0019 110.282 52.7254 110.005C52.449 109.729 52.0009 109.729 51.7245 110.005L48.6855 113.044L47.0623 111.421C46.7859 111.145 46.3378 111.145 46.0613 111.421C45.7849 111.697 45.7849 112.145 46.0613 112.422L48.185 114.546Z" fill="white"/>
<rect x="35" y="66.1951" width="80" height="29.6364" rx="13.5" fill="#F8F8FF"/>
<rect opacity="0.3" x="62.8433" y="72.33" width="44.8085" height="3.10673" rx="1.55337" fill="#1B3554"/>
<rect opacity="0.3" x="62.8433" y="77.993" width="33.0012" height="3.10673" rx="1.55337" fill="#1B3554"/>
<rect opacity="0.15" x="62.8433" y="86.4875" width="12.8139" height="3.10673" rx="1.55337" fill="#1B3554"/>
<path fill-rule="evenodd" clip-rule="evenodd" d="M49.3513 84.4684C53.368 84.4684 56.6241 81.2229 56.6241 77.2194C56.6241 73.2158 53.368 69.9703 49.3513 69.9703C45.3347 69.9703 42.0786 73.2158 42.0786 77.2194C42.0786 81.2229 45.3347 84.4684 49.3513 84.4684Z" fill="#BAC2CB"/>
<path d="M48.185 79.9092C48.3234 80.0476 48.5043 80.1167 48.6855 80.1167C48.8667 80.1167 49.0476 80.0476 49.186 79.9092L52.7254 76.3698C53.0019 76.0934 53.0019 75.6453 52.7254 75.3688C52.449 75.0924 52.0009 75.0924 51.7245 75.3688L48.6855 78.4075L47.0623 76.7846C46.7859 76.5082 46.3378 76.5082 46.0613 76.7846C45.7849 77.061 45.7849 77.5091 46.0613 77.7856L48.185 79.9092Z" fill="white"/>
<g filter="url(#filter0_d_3288_828)">
<path fill-rule="evenodd" clip-rule="evenodd" d="M41.8428 17.0238L108.629 26.5033C112.148 27.0417 115 29.5006 115 31.9915V48.6305C115 51.1214 112.148 53.5767 108.629 54.1107L42.3147 61.1501C38.7962 61.5995 35 58.6462 35 53.9755V24.1912C35 19.5205 38.3243 16.5705 41.8428 17.0238Z" fill="white"/>
</g>
<path opacity="0.3" fill-rule="evenodd" clip-rule="evenodd" d="M64.3966 30.6074L106.098 33.507C106.956 33.5697 107.652 34.156 107.652 34.8164C107.652 35.4769 106.956 35.9795 106.098 35.9391L64.3966 34.0677C63.5387 34.0311 62.8433 33.2188 62.8433 32.2532C62.8433 31.2877 63.5387 30.5508 64.3966 30.6074Z" fill="#1B3554"/>
<path opacity="0.3" fill-rule="evenodd" clip-rule="evenodd" d="M64.3966 36.9148L94.291 37.6396C95.1489 37.6612 95.8444 38.2818 95.8444 39.0258C95.8444 39.7698 95.1489 40.373 94.291 40.3731L64.3966 40.3751C63.5387 40.3751 62.8433 39.5924 62.8433 38.6269C62.8433 37.6613 63.5387 36.8948 64.3966 36.9148Z" fill="#1B3554"/>
<path opacity="0.15" fill-rule="evenodd" clip-rule="evenodd" d="M64.3966 46.376L74.1037 45.9761C74.9616 45.9403 75.6571 46.6259 75.6571 47.5075C75.6571 48.3891 74.9616 49.1496 74.1037 49.2061L64.3966 49.8363C63.5387 49.8913 62.8433 49.153 62.8433 48.1874C62.8433 47.2219 63.5387 46.4109 64.3966 46.376Z" fill="#1B3554"/>
<path fill-rule="evenodd" clip-rule="evenodd" d="M50.3696 44.5081C54.9486 44.4117 58.6606 40.5209 58.6606 35.8189C58.6606 31.1169 54.9486 27.0441 50.3696 26.7256C45.7906 26.4108 42.0786 30.3046 42.0786 35.4192C42.0786 40.5337 45.7906 44.6034 50.3696 44.5081Z" fill="#7DFBA5"/>
<path d="M49.0402 38.9063C49.198 39.0782 49.4041 39.1646 49.6107 39.1658C49.8173 39.1671 50.0235 39.0835 50.1813 38.9147L54.2163 34.6884C54.5315 34.3659 54.5315 33.8279 54.2163 33.4847C53.9012 33.1404 53.3903 33.1212 53.0752 33.4437L49.6107 37.0614L47.7603 35.0138C47.4451 34.6614 46.9343 34.6469 46.6192 34.9835C46.304 35.3211 46.304 35.882 46.6192 36.2344L49.0402 38.9063Z" fill="white"/>
<defs>
<filter id="filter0_d_3288_828" x="0" y="0.978027" width="150" height="114.217" filterUnits="userSpaceOnUse" color-interpolation-filters="sRGB">
<feFlood flood-opacity="0" result="BackgroundImageFix"/>
<feColorMatrix in="SourceAlpha" type="matrix" values="0 0 0 0 0 0 0 0 0 0 0 0 0 0 0 0 0 0 127 0" result="hardAlpha"/>
<feOffset dy="19"/>
<feGaussianBlur stdDeviation="17.5"/>
<feColorMatrix type="matrix" values="0 0 0 0 0.226735 0 0 0 0 0.437054 0 0 0 0 0.687819 0 0 0 0.189057 0"/>
<feBlend mode="normal" in2="BackgroundImageFix" result="effect1_dropShadow_3288_828"/>
<feBlend mode="normal" in="SourceGraphic" in2="effect1_dropShadow_3288_828" result="shape"/>
</filter>
</defs>
</svg>
